<svg width="553" height="532" viewBox="0 0 553 532" fill="none" xmlns="http://www.w3.org/2000/svg">
<g clip-path="url(#clip0)">
<rect x="189" y="379" width="260" height="21" rx="10" fill="white"/>
<path d="M525.17 211.464C531.9 211.464 535.265 214.156 535.265 219.54C535.265 224.924 532.169 228.289 525.978 229.635L519.921 230.847C515.075 231.654 511.576 234.481 509.422 239.326L449.256 391.962C447.372 397.346 443.468 400.038 437.546 400.038H435.527C429.605 400.038 425.701 397.481 423.817 392.366L360.42 238.922C358.267 234.077 354.767 231.25 349.922 230.443L345.076 229.635C338.885 228.289 335.789 224.924 335.789 219.54C335.789 214.156 339.154 211.464 345.884 211.464H425.836C432.566 211.464 435.931 214.156 435.931 219.54C435.931 225.463 432.835 228.828 426.643 229.635L416.548 231.25C409.28 232.596 406.857 236.634 409.28 243.364L448.448 348.352L486.809 242.96C489.232 236.23 486.809 232.193 479.541 230.847L471.869 229.635C465.677 228.289 462.581 224.924 462.581 219.54C462.581 214.156 465.946 211.464 472.676 211.464H525.17Z" fill="white"/>
<path d="M206.684 372.542C209.376 376.849 213.01 379.541 217.587 380.618L228.085 382.637C234.008 383.983 236.969 387.213 236.969 392.328C236.969 397.443 233.604 400 226.874 400H182.052C176.937 400 172.9 397.712 169.938 393.135L118.252 307.126L96.447 329.335C96.447 335.796 96.447 342.526 96.447 349.525C96.7162 356.524 96.8508 363.524 96.8508 370.523C97.3892 376.714 100.485 380.348 106.138 381.425L115.022 383.04C121.213 384.386 124.309 387.482 124.309 392.328C124.309 397.443 120.944 400 114.214 400H36.6849C29.9549 400 26.5899 397.443 26.5899 392.328C26.5899 387.482 29.6857 384.386 35.8773 383.04L44.7609 381.425C50.6832 380.348 53.6444 376.714 53.6444 370.523C53.9136 361.908 54.0482 353.159 54.0482 344.276C54.3174 335.123 54.452 326.643 54.452 318.837V164.586C54.452 158.394 51.3562 154.894 45.1647 154.087L33.0507 152.472C26.8591 151.664 23.7633 148.837 23.7633 143.992C23.7633 139.146 26.5899 135.916 32.2431 134.301L85.1407 120.572C86.4867 120.033 87.5635 119.764 88.3711 119.764C89.4479 119.764 90.5247 119.764 91.6015 119.764C93.4858 119.764 94.6972 120.033 95.2356 120.572C96.8508 121.648 97.6584 124.879 97.6584 130.263L96.447 177.103V305.511L154.594 246.96C157.555 243.999 158.632 241.307 157.824 238.884C157.286 236.193 155.132 234.577 151.364 234.039L146.114 233.231C139.923 232.424 136.827 229.193 136.827 223.54C136.827 218.156 140.192 215.464 146.922 215.464H215.568C222.297 215.464 225.662 218.156 225.662 223.54C225.662 229.193 222.567 232.424 216.375 233.231L196.589 236.058C192.282 236.865 188.378 238.75 184.879 241.711L148.537 277.245L206.684 372.542Z" fill="white"/>
</g>
<defs>
<clipPath id="clip0">
<rect width="553" height="532" fill="white"/>
</clipPath>
</defs>
</svg>
